<?xml version="1.0" encoding="UTF-8" standalone="no" ?>
<!DOCTYPE svg PUBLIC "-//W3C//DTD SVG 1.1//EN" "http://www.w3.org/Graphics/SVG/1.1/DTD/svg11.dtd">
<svg xmlns="http://www.w3.org/2000/svg" xmlns:xlink="http://www.w3.org/1999/xlink" version="1.1" width="1080" height="1080" viewBox="0 0 1080 1080" xml:space="preserve">
<desc>Created with Fabric.js 5.2.4</desc>
<defs>
</defs>
<g transform="matrix(1 0 0 1 540 540)" id="f1b56f2d-2f9f-410f-8c1f-532a1e86c3bd"  >
<rect style="stroke: none; stroke-width: 1; stroke-dasharray: none; stroke-linecap: butt; stroke-dashoffset: 0; stroke-linejoin: miter; stroke-miterlimit: 4; fill: rgb(255,255,255); fill-rule: nonzero; opacity: 1; visibility: hidden;" vector-effect="non-scaling-stroke"  x="-540" y="-540" rx="0" ry="0" width="1080" height="1080" />
</g>
<g transform="matrix(1 0 0 1 540 540)" id="a832b3e0-ae4c-407a-8e6e-14a3a9f5cae6"  >
</g>
<g transform="matrix(0 0 0 0 0 0)"  >
<g style=""   >
</g>
</g>
<g transform="matrix(1.62 0 0 1.62 556.37 559.27)"  >
<path style="stroke: none; stroke-width: 1; stroke-dasharray: none; stroke-linecap: butt; stroke-dashoffset: 0; stroke-linejoin: miter; stroke-miterlimit: 4; fill: rgb(238,29,82); fill-rule: nonzero; opacity: 1;" vector-effect="non-scaling-stroke"  transform=" translate(-510.12, -408.42)" d="M 258.65 606.94 L 260.59 612.4200000000001 C 260.34 611.79 259.63 609.87 258.65 606.94 Z M 335.41999999999996 482.81000000000006 C 338.83 453.38000000000005 350.41999999999996 436.9000000000001 372.19999999999993 420.00000000000006 C 403.3999999999999 397.13000000000005 442.36999999999995 410.07000000000005 442.36999999999995 410.07000000000005 L 442.36999999999995 333.29 C 451.8418701349812 333.02903372594255 461.3183466158432 333.6012362253166 470.69000000000005 335 L 470.69 433.81 C 470.69 433.81 431.69 420.81 400.53999999999996 443.75 C 378.73999999999995 460.64 367.15 477.13 363.76 506.56 C 363.65 522.56 366.52 543.43 379.76 561.5 Q 374.86 558.88 369.76 555.5 C 340.59999999999997 535.07 335.28999999999996 504.42 335.43 482.76 Z M 631.58 191.34 C 610.12 166.8 602 142 599.07 124.63 L 626.07 124.63 C 626.07 124.63 620.69 170.25 659.9100000000001 215.12 L 660.46 215.73000000000002 C 649.8884937976524 208.78968645101676 640.1919178986562 200.60064607094353 631.58 191.34000000000006 Z M 761.58 260.89 L 761.58 357.71 C 761.58 357.71 727.13 356.29999999999995 701.6400000000001 349.53 C 666.0400000000001 340.07 643.1600000000001 325.53 643.1600000000001 325.53 C 643.1600000000001 325.53 627.3600000000001 315.16999999999996 626.08 314.45 L 626.08 514.41 C 626.08 525.54 623.1600000000001 553.3399999999999 614.25 576.52 C 602.62 606.86 584.67 626.77 581.37 630.8299999999999 C 581.37 630.8299999999999 559.55 657.7499999999999 521.04 675.8299999999999 C 486.33 692.18 455.85999999999996 691.77 446.74999999999994 692.18 C 446.74999999999994 692.18 394.06999999999994 694.3599999999999 346.66999999999996 662.18 C 336.41668325612153 655.087534846633 326.84843666280443 647.0526181832457 318.09 638.18 L 318.33 638.3499999999999 C 365.74 670.4999999999999 418.40999999999997 668.3499999999999 418.40999999999997 668.3499999999999 C 427.53 667.9399999999999 458 668.3499999999999 492.7 651.9999999999999 C 531.17 633.8799999999999 553.03 606.9999999999999 553.03 606.9999999999999 C 556.3 602.9299999999998 574.3199999999999 582.9999999999999 585.91 552.6699999999998 C 594.79 529.4999999999999 597.73 501.66999999999985 597.73 490.54999999999984 L 597.73 290.71 C 599.01 291.44 614.8100000000001 301.78999999999996 614.8100000000001 301.78999999999996 C 614.8100000000001 301.78999999999996 637.7 316.31999999999994 673.2900000000001 325.78999999999996 C 698.8000000000001 332.55999999999995 733.23 333.96 733.23 333.96 L 733.23 258.08 C 745.02 260.84 755.0600000000001 261.58 761.58 260.89 Z" stroke-linecap="round" />
</g>
<g transform="matrix(1.62 0 0 1.62 539.96 540.07)"  >
<path style="stroke: none; stroke-width: 1; stroke-dasharray: none; stroke-linecap: butt; stroke-dashoffset: 0; stroke-linejoin: miter; stroke-miterlimit: 4; fill: rgb(0,0,0); fill-rule: nonzero; opacity: 1;" vector-effect="non-scaling-stroke"  transform=" translate(-499.97, -396.55)" d="M 733.29 258.08 L 733.29 333.91999999999996 C 733.29 333.91999999999996 698.86 332.50999999999993 673.3499999999999 325.73999999999995 C 637.7599999999999 316.28 614.8699999999999 301.73999999999995 614.8699999999999 301.73999999999995 C 614.8699999999999 301.73999999999995 599.0699999999999 291.37999999999994 597.7999999999998 290.65 L 597.7999999999998 490.65 C 597.7999999999998 501.78 594.8699999999999 529.5899999999999 585.9699999999998 552.77 C 574.3399999999998 583.11 556.3899999999998 603.02 553.0899999999998 607.09 C 553.0899999999998 607.09 531.2499999999998 634 492.7599999999998 652.09 C 458.05999999999983 668.44 427.5899999999998 668.0300000000001 418.4699999999998 668.44 C 418.4699999999998 668.44 365.7999999999998 670.62 318.3899999999998 638.44 L 318.1499999999998 638.2600000000001 C 313.14722596298043 633.1983985908728 308.4362901215552 627.8564444120773 304.03999999999985 622.2600000000001 C 288.9099999999998 603.0100000000001 279.6399999999998 580.2600000000001 277.2999999999998 573.7600000000001 L 277.2999999999998 573.6700000000001 C 273.5499999999998 562.3900000000001 265.6799999999998 535.2800000000001 266.7499999999998 509.0300000000001 C 268.6599999999998 462.7200000000001 284.26999999999975 434.2900000000001 288.39999999999975 427.1700000000001 C 299.32931066043807 407.7561572153917 313.5394424080475 390.38257947158826 330.39999999999975 375.82000000000005 C 345.29096222989205 363.2558885440854 362.1723689658648 353.2622309428299 380.3499999999997 346.2500000000001 C 400.0020115729566 338.01366169405185 421.04471221534857 333.60148252709865 442.3499999999997 333.25 L 442.34999999999974 410.0300000000001 C 442.34999999999974 410.0300000000001 403.34999999999974 397.1300000000001 372.1899999999997 419.9600000000001 C 350.3899999999997 436.86000000000007 338.8199999999997 453.3400000000001 335.41999999999973 482.7700000000001 C 335.26999999999975 504.4300000000001 340.58999999999975 535.0800000000002 369.71999999999974 555.5200000000001 Q 374.81999999999977 558.9000000000001 379.71999999999974 561.5200000000001 C 384.8115537699302 568.4226721804629 391.00828837783735 574.436951134702 398.0599999999997 579.32 C 426.5199999999997 598.12 450.3699999999997 599.4300000000001 480.85999999999973 587.22 C 501.1999999999997 579.0600000000001 516.5099999999998 560.6700000000001 523.6099999999997 540.28 C 528.0699999999997 527.55 528.0099999999996 514.74 528.0099999999996 501.48999999999995 L 528.0099999999996 124.63 L 599.0099999999996 124.63 C 601.9399999999996 142.03 610.0099999999996 166.8 631.5099999999996 191.33999999999997 C 640.1219178986559 200.60064607094347 649.818493797652 208.78968645101673 660.3899999999996 215.73000000000002 C 663.5099999999996 219.09999999999997 679.4799999999997 235.72999999999996 699.9799999999997 245.99999999999997 C 710.584376190896 251.28832581995334 721.7609060442385 255.3415374869715 733.2899999999998 258.0799999999999 Z" stroke-linecap="round" />
</g>
<g transform="matrix(1.62 0 0 1.62 135.59 792.72)"  >
<path style="stroke: none; stroke-width: 1; stroke-dasharray: none; stroke-linecap: butt; stroke-dashoffset: 0; stroke-linejoin: miter; stroke-miterlimit: 4; fill: rgb(105,201,208); fill-rule: nonzero; opacity: 1;" vector-effect="non-scaling-stroke"  transform=" translate(-249.94, -552.77)" d="M 249.06 550.24 L 249.06 550.3 L 250.81 555.3 C 250.6 554.7199999999999 249.95 552.9599999999999 249.06 550.3 Z" stroke-linecap="round" />
</g>
<g transform="matrix(1.62 0 0 1.62 281.92 665.36)"  >
<path style="stroke: none; stroke-width: 1; stroke-dasharray: none; stroke-linecap: butt; stroke-dashoffset: 0; stroke-linejoin: miter; stroke-miterlimit: 4; fill: rgb(105,201,208); fill-rule: nonzero; opacity: 1;" vector-effect="non-scaling-stroke"  transform=" translate(-340.41, -474.02)" d="M 380.38 346.31 C 362.20236896586505 353.32223094282983 345.32096222989225 363.3158885440854 330.42999999999995 375.8800000000001 C 313.5554087920526 390.4715074193285 299.34410653006313 407.8837363336613 288.43 427.33999999999986 C 284.3 434.44 268.69 462.89 266.78000000000003 509.2 C 265.71000000000004 535.45 273.59000000000003 562.55 277.34000000000003 573.84 C 277.32995934354614 573.8657215280853 277.32995934354614 573.8942784719148 277.34000000000003 573.9200000000001 C 279.70000000000005 580.3600000000001 288.94000000000005 603.1200000000001 304.07000000000005 622.4200000000001 C 308.46685291214516 628.0159758234195 313.1777612488741 633.3578988133319 318.18000000000006 638.4200000000001 C 302.14605074881854 627.3212768138426 287.844229867673 613.9091073729944 275.7400000000001 598.6200000000001 C 260.74000000000007 579.5400000000001 251.49000000000007 557.0200000000001 249.08000000000007 550.3700000000001 C 249.06998707990934 550.3238704328089 249.06998707990934 550.2761295671913 249.08000000000007 550.2300000000001 L 249.08000000000007 550.1400000000001 C 245.31000000000006 538.8700000000001 237.41000000000008 511.7600000000001 238.51000000000008 485.4700000000001 C 240.42000000000007 439.1600000000001 256.0300000000001 410.7300000000001 260.1600000000001 403.61000000000007 C 271.0741065300632 384.15373633366147 285.28540879205264 366.74150741932857 302.16 352.1500000000001 C 317.0484036299804 339.5849735298952 333.92610822203494 329.5881272777332 352.1 322.57000000000016 C 363.43938247255477 317.8699703767614 375.25030712406624 314.4001131487414 387.33000000000004 312.2200000000001 C 405.5357338603503 309.0467209046131 424.12884140459744 308.7733424854655 442.4200000000001 311.4100000000001 L 442.4200000000001 333.2900000000001 C 421.09963984266426 333.64029793828234 400.0423813289372 338.0594711466757 380.37999999999994 346.31000000000006 Z" stroke-linecap="round" />
</g>
<g transform="matrix(1.62 0 0 1.62 631.4 461.56)"  >
<path style="stroke: none; stroke-width: 1; stroke-dasharray: none; stroke-linecap: butt; stroke-dashoffset: 0; stroke-linejoin: miter; stroke-miterlimit: 4; fill: rgb(105,201,208); fill-rule: nonzero; opacity: 1;" vector-effect="non-scaling-stroke"  transform=" translate(-556.51, -348)" d="M 599.07 124.63 L 528.07 124.63 L 528.07 501.54 C 528.07 514.78 528.07 527.54 523.6700000000001 540.33 C 516.5000000000001 560.7 501.25000000000006 579.09 480.9200000000001 587.25 C 450.4200000000001 599.51 426.57000000000005 598.15 398.12000000000006 579.35 C 391.0547790343909 574.4898859970723 384.84110168694826 568.49583291694 379.7300000000001 561.61 C 403.9700000000001 574.54 425.6700000000001 574.3100000000001 452.5400000000001 563.52 C 472.86000000000007 555.36 488.1300000000001 536.97 495.2700000000001 516.5799999999999 C 499.7500000000001 503.8499999999999 499.6900000000001 491.0399999999999 499.6900000000001 477.79999999999995 L 499.6900000000001 100.79999999999995 L 597.69 100.79999999999995 C 597.69 100.79999999999995 596.63 110.19 599.07 124.63 Z M 733.29 237.1 L 733.29 258.1 C 721.7828056637699 255.35418273301337 710.6295413199512 251.29417976790492 700.05 246.00000000000003 C 679.55 235.77 663.5799999999999 219.1 660.4599999999999 215.73 C 664.0826112576984 218.10959249751943 667.8424788025255 220.27335286079472 671.7199999999999 222.20999999999998 C 696.6499999999999 234.65999999999997 721.1899999999999 238.36999999999998 733.29 237.09999999999997 Z" stroke-linecap="round" />
</g>
</svg>